<mxfile host="app.diagrams.net" modified="2022-09-23T06:43:43.235Z" agent="5.0 (Windows NT 10.0; Win64; x64) AppleWebKit/537.36 (KHTML, like Gecko) Chrome/105.0.0.0 Safari/537.36 Edg/105.0.1343.42" etag="_TKhRYlGLX1rFctQLhM3" version="20.3.6" type="github">
  <diagram id="C5RBs43oDa-KdzZeNtuy" name="Page-1">
    <mxGraphModel dx="1357" dy="802" grid="1" gridSize="10" guides="1" tooltips="1" connect="1" arrows="1" fold="1" page="1" pageScale="1" pageWidth="827" pageHeight="1169" math="0" shadow="0">
      <root>
        <mxCell id="WIyWlLk6GJQsqaUBKTNV-0" />
        <mxCell id="WIyWlLk6GJQsqaUBKTNV-1" parent="WIyWlLk6GJQsqaUBKTNV-0" />
        <mxCell id="TT6_98qkkRA97OG73WsV-25" value="" style="rounded=0;whiteSpace=wrap;html=1;" vertex="1" parent="WIyWlLk6GJQsqaUBKTNV-1">
          <mxGeometry x="460" y="230" width="320" height="70" as="geometry" />
        </mxCell>
        <mxCell id="TT6_98qkkRA97OG73WsV-2" style="edgeStyle=orthogonalEdgeStyle;rounded=0;orthogonalLoop=1;jettySize=auto;html=1;entryX=1;entryY=0.5;entryDx=0;entryDy=0;exitX=0.5;exitY=1;exitDx=0;exitDy=0;" edge="1" parent="WIyWlLk6GJQsqaUBKTNV-1" source="TT6_98qkkRA97OG73WsV-0" target="TT6_98qkkRA97OG73WsV-1">
          <mxGeometry relative="1" as="geometry">
            <Array as="points">
              <mxPoint x="320" y="308" />
            </Array>
          </mxGeometry>
        </mxCell>
        <mxCell id="TT6_98qkkRA97OG73WsV-4" value="根据用户角色&lt;br&gt;获取查询限定条件" style="edgeLabel;html=1;align=center;verticalAlign=middle;resizable=0;points=[];" vertex="1" connectable="0" parent="TT6_98qkkRA97OG73WsV-2">
          <mxGeometry x="0.168" relative="1" as="geometry">
            <mxPoint x="10" y="-61" as="offset" />
          </mxGeometry>
        </mxCell>
        <mxCell id="TT6_98qkkRA97OG73WsV-0" value="访问权限配置" style="rounded=0;whiteSpace=wrap;html=1;" vertex="1" parent="WIyWlLk6GJQsqaUBKTNV-1">
          <mxGeometry x="260" y="80" width="120" height="60" as="geometry" />
        </mxCell>
        <mxCell id="TT6_98qkkRA97OG73WsV-15" style="edgeStyle=orthogonalEdgeStyle;rounded=0;orthogonalLoop=1;jettySize=auto;html=1;entryX=0;entryY=0.638;entryDx=0;entryDy=0;entryPerimeter=0;" edge="1" parent="WIyWlLk6GJQsqaUBKTNV-1" source="TT6_98qkkRA97OG73WsV-1" target="TT6_98qkkRA97OG73WsV-11">
          <mxGeometry relative="1" as="geometry" />
        </mxCell>
        <mxCell id="TT6_98qkkRA97OG73WsV-1" value="数据权限模块" style="rounded=0;whiteSpace=wrap;html=1;" vertex="1" parent="WIyWlLk6GJQsqaUBKTNV-1">
          <mxGeometry x="110" y="278" width="120" height="60" as="geometry" />
        </mxCell>
        <mxCell id="TT6_98qkkRA97OG73WsV-6" style="edgeStyle=orthogonalEdgeStyle;rounded=0;orthogonalLoop=1;jettySize=auto;html=1;entryX=0.5;entryY=0;entryDx=0;entryDy=0;" edge="1" parent="WIyWlLk6GJQsqaUBKTNV-1" source="TT6_98qkkRA97OG73WsV-5" target="TT6_98qkkRA97OG73WsV-1">
          <mxGeometry relative="1" as="geometry" />
        </mxCell>
        <mxCell id="TT6_98qkkRA97OG73WsV-7" value="用户请求" style="edgeLabel;html=1;align=center;verticalAlign=middle;resizable=0;points=[];" vertex="1" connectable="0" parent="TT6_98qkkRA97OG73WsV-6">
          <mxGeometry x="-0.313" y="-4" relative="1" as="geometry">
            <mxPoint as="offset" />
          </mxGeometry>
        </mxCell>
        <mxCell id="TT6_98qkkRA97OG73WsV-5" value="" style="shape=actor;whiteSpace=wrap;html=1;" vertex="1" parent="WIyWlLk6GJQsqaUBKTNV-1">
          <mxGeometry x="150" y="90" width="40" height="60" as="geometry" />
        </mxCell>
        <mxCell id="TT6_98qkkRA97OG73WsV-14" value="" style="group" vertex="1" connectable="0" parent="WIyWlLk6GJQsqaUBKTNV-1">
          <mxGeometry x="210" y="390" width="290" height="80" as="geometry" />
        </mxCell>
        <mxCell id="TT6_98qkkRA97OG73WsV-11" value="" style="rounded=0;whiteSpace=wrap;html=1;" vertex="1" parent="TT6_98qkkRA97OG73WsV-14">
          <mxGeometry width="290" height="80" as="geometry" />
        </mxCell>
        <mxCell id="TT6_98qkkRA97OG73WsV-9" value="ClickHouse" style="strokeWidth=2;html=1;shape=mxgraph.flowchart.direct_data;whiteSpace=wrap;" vertex="1" parent="TT6_98qkkRA97OG73WsV-14">
          <mxGeometry x="20" y="10" width="100" height="60" as="geometry" />
        </mxCell>
        <mxCell id="TT6_98qkkRA97OG73WsV-10" value="Postgres" style="strokeWidth=2;html=1;shape=mxgraph.flowchart.direct_data;whiteSpace=wrap;" vertex="1" parent="TT6_98qkkRA97OG73WsV-14">
          <mxGeometry x="160" y="10" width="100" height="60" as="geometry" />
        </mxCell>
        <mxCell id="TT6_98qkkRA97OG73WsV-16" value="数据所属配置" style="rounded=0;whiteSpace=wrap;html=1;" vertex="1" parent="WIyWlLk6GJQsqaUBKTNV-1">
          <mxGeometry x="470" y="80" width="120" height="60" as="geometry" />
        </mxCell>
        <mxCell id="TT6_98qkkRA97OG73WsV-18" value="数据源" style="rounded=0;whiteSpace=wrap;html=1;" vertex="1" parent="WIyWlLk6GJQsqaUBKTNV-1">
          <mxGeometry x="600" y="420" width="120" height="60" as="geometry" />
        </mxCell>
        <mxCell id="TT6_98qkkRA97OG73WsV-19" value="日志模块" style="rounded=0;whiteSpace=wrap;html=1;" vertex="1" parent="WIyWlLk6GJQsqaUBKTNV-1">
          <mxGeometry x="470" y="255" width="70" height="30" as="geometry" />
        </mxCell>
        <mxCell id="TT6_98qkkRA97OG73WsV-22" value="威胁事件" style="rounded=0;whiteSpace=wrap;html=1;" vertex="1" parent="WIyWlLk6GJQsqaUBKTNV-1">
          <mxGeometry x="560" y="255" width="70" height="30" as="geometry" />
        </mxCell>
        <mxCell id="TT6_98qkkRA97OG73WsV-23" value="api资产" style="rounded=0;whiteSpace=wrap;html=1;" vertex="1" parent="WIyWlLk6GJQsqaUBKTNV-1">
          <mxGeometry x="690" y="255" width="70" height="30" as="geometry" />
        </mxCell>
      </root>
    </mxGraphModel>
  </diagram>
</mxfile>
